<?xml version="1.0" standalone="no"?>
<!DOCTYPE svg PUBLIC "-//W3C//DTD SVG 20010904//EN"
 "http://www.w3.org/TR/2001/REC-SVG-20010904/DTD/svg10.dtd">
<svg version="1.0" xmlns="http://www.w3.org/2000/svg"
 width="1080.000000pt" height="1080.000000pt" viewBox="0 0 1080.000000 1080.000000"
 preserveAspectRatio="xMidYMid meet">
<metadata>
Created by potrace 1.14, written by Peter Selinger 2001-2017
</metadata>
<g transform="translate(0.000000,1080.000000) scale(0.100000,-0.100000)"
fill="#000000" stroke="none">
<path d="M4225 9419 c-118 -11 -167 -19 -245 -41 -41 -11 -85 -23 -98 -25 -12
-3 -25 -9 -28 -14 -3 -5 -12 -9 -19 -9 -21 0 -182 -78 -245 -119 -215 -139
-398 -338 -504 -548 -61 -122 -120 -300 -132 -398 -3 -22 -7 -51 -10 -65 -10
-47 -12 -265 -3 -320 5 -30 11 -73 13 -95 13 -128 100 -353 194 -500 84 -132
239 -302 344 -378 15 -10 0 -20 -115 -71 -72 -33 -170 -77 -217 -99 -47 -21
-101 -46 -120 -54 -19 -8 -42 -19 -50 -23 -8 -5 -41 -21 -72 -36 -32 -15 -58
-30 -58 -34 0 -4 -11 -12 -23 -17 -39 -18 -143 -120 -180 -176 -47 -72 -66
-134 -62 -205 5 -115 66 -183 198 -223 164 -50 535 -17 644 56 20 14 48 28 62
32 14 3 31 8 36 12 6 3 15 6 20 7 6 1 35 9 66 18 31 9 66 19 78 21 11 3 31 7
44 10 37 9 119 25 128 25 4 0 1 -17 -8 -37 -31 -74 -44 -139 -49 -243 -5 -118
7 -192 42 -263 33 -65 33 -69 -87 -314 -38 -77 -69 -148 -69 -157 0 -9 -4 -16
-8 -16 -5 0 -9 -6 -9 -12 -1 -7 -15 -51 -33 -98 -17 -47 -33 -92 -35 -100 -45
-178 -50 -206 -61 -285 -6 -46 -5 -225 1 -270 3 -22 8 -56 10 -75 2 -19 10
-62 19 -95 20 -79 21 -74 -21 -91 -61 -25 -446 -216 -475 -237 -16 -10 -28
-15 -28 -11 0 3 -6 2 -12 -4 -7 -5 -57 -33 -110 -61 -133 -69 -239 -126 -330
-177 -43 -24 -82 -44 -88 -44 -5 0 -10 -5 -10 -11 0 -5 -4 -8 -9 -4 -5 3 -12
1 -15 -4 -3 -5 -63 -41 -133 -80 -155 -86 -189 -106 -304 -176 -50 -30 -94
-55 -100 -55 -5 0 -9 -4 -9 -10 0 -5 -4 -10 -10 -10 -12 0 -364 -222 -368
-232 -2 -4 -8 -8 -14 -8 -6 0 -27 -14 -48 -30 -21 -17 -43 -30 -49 -30 -6 0
-11 -4 -11 -8 0 -5 -11 -14 -25 -20 -14 -7 -31 -16 -38 -22 -57 -47 -76 -60
-86 -60 -6 0 -11 -4 -11 -8 0 -5 -12 -15 -27 -23 -16 -8 -32 -19 -38 -25 -5
-7 -59 -49 -120 -95 -99 -74 -203 -160 -261 -214 -100 -95 -124 -118 -159
-156 -22 -24 -62 -71 -88 -104 -26 -33 -51 -65 -55 -70 -5 -6 -25 -40 -46 -77
-49 -87 -46 -113 14 -148 73 -43 338 -121 460 -135 25 -3 52 -7 60 -10 20 -5
126 -18 253 -30 80 -8 365 -18 492 -18 172 0 581 11 615 17 22 4 102 10 265
21 22 1 72 6 110 10 39 4 84 9 100 10 55 4 180 17 200 21 11 3 43 6 72 9 28 2
89 9 135 16 46 6 99 13 118 15 19 2 53 6 75 9 69 11 89 14 137 19 26 3 58 8
70 10 13 3 39 8 58 10 19 3 78 12 130 20 52 8 111 17 130 20 19 3 46 8 60 10
14 3 106 19 205 36 99 17 191 33 205 35 45 9 265 55 281 59 9 2 32 7 50 10 19
3 58 12 87 20 28 8 52 12 52 10 0 -3 8 0 19 5 10 6 33 13 52 16 40 7 377 93
399 102 8 3 22 7 30 8 8 1 40 10 71 19 31 9 65 18 75 21 25 5 96 25 269 75 77
23 145 42 150 44 6 1 30 8 55 15 25 6 56 16 70 21 29 10 198 61 214 65 6 1 18
4 26 7 38 14 226 72 237 74 12 2 194 60 223 71 8 3 20 7 25 8 6 2 47 15 93 30
46 15 89 28 95 29 7 2 19 6 27 9 18 7 111 38 125 41 6 2 17 6 25 9 8 3 89 31
180 61 91 30 190 64 220 75 l55 20 18 -20 c9 -12 17 -27 17 -34 0 -7 16 -25
35 -39 19 -15 35 -24 35 -20 0 3 6 2 13 -4 6 -5 32 -15 57 -22 25 -7 88 -36
140 -65 126 -70 260 -131 330 -151 108 -29 153 -35 230 -31 92 5 115 9 188 33
60 20 242 115 242 126 0 4 5 8 12 8 11 0 177 121 233 171 17 14 55 48 85 75
31 27 89 78 129 114 41 36 83 71 95 79 12 8 23 18 26 21 9 13 45 27 82 34 42
8 60 30 48 62 -10 26 -24 32 -75 29 -119 -8 -366 -2 -425 10 -14 3 -45 8 -70
11 -79 11 -183 51 -207 80 l-22 28 27 49 c55 102 61 115 76 173 18 72 30 183
30 285 l-1 77 36 -16 c57 -26 218 -22 306 6 130 42 158 67 235 207 123 223
279 425 480 625 182 181 202 205 195 239 -10 53 -38 65 -210 86 -101 13 -125
17 -201 35 -44 10 -109 29 -145 41 -76 26 -253 109 -257 121 -2 4 -8 8 -14 8
-6 0 -44 21 -86 48 -180 112 -258 140 -355 128 -58 -8 -135 -32 -154 -48 -7
-6 -13 -7 -13 -4 0 13 -95 -57 -144 -106 -26 -26 -52 -48 -57 -48 -5 0 -9 -4
-9 -10 0 -5 -7 -10 -15 -10 -8 0 -15 5 -15 10 0 18 -184 196 -220 213 -19 8
-54 29 -77 46 -46 33 -48 52 -16 115 38 75 175 222 302 326 24 19 57 47 75 61
17 14 50 38 73 52 23 15 47 36 53 47 25 47 -22 84 -68 54 -43 -28 -84 -31
-302 -18 -415 23 -659 4 -828 -64 -151 -62 -234 -140 -349 -327 -23 -38 -95
-190 -122 -260 -15 -38 -32 -79 -36 -90 -4 -11 -9 -24 -11 -30 -1 -5 -14 -43
-28 -84 -14 -41 -23 -77 -21 -80 11 -18 -32 -45 -107 -66 -45 -13 -123 -35
-173 -50 -260 -76 -394 -115 -402 -115 -4 0 -8 42 -8 93 0 106 -30 251 -71
349 -15 35 -33 78 -40 95 -8 18 -13 35 -12 37 2 2 -4 12 -13 22 -23 26 -32 61
-17 61 32 0 151 68 195 111 82 81 116 176 116 327 0 66 -11 217 -18 256 -3 13
-7 42 -10 64 -8 68 -60 358 -79 448 -3 12 3 21 17 26 12 5 58 25 102 46 44 20
96 44 115 53 44 20 223 127 270 161 135 98 263 251 287 343 9 32 9 167 1 201
-26 108 -142 217 -260 244 -56 13 -239 7 -313 -10 -100 -24 -228 -63 -250 -76
-5 -3 -39 -18 -75 -32 -69 -28 -75 -27 -83 22 -16 87 -59 207 -89 251 -10 14
-18 30 -18 35 0 12 -79 88 -106 101 -15 8 -26 31 -39 84 -47 196 -165 326
-335 368 -41 11 -49 18 -90 83 -85 136 -193 251 -349 373 -104 81 -333 191
-457 219 -10 2 -46 11 -79 18 -33 8 -67 15 -75 15 -8 0 -41 3 -72 7 -85 10
-164 12 -243 4z m1221 -4374 c36 -27 84 -116 90 -167 11 -82 11 -82 -23 -93
-18 -5 -33 -12 -33 -16 0 -6 -174 -67 -210 -74 -21 -4 -712 -230 -740 -242 -8
-3 -19 -7 -25 -8 -5 -2 -56 -19 -112 -38 -55 -20 -103 -33 -106 -31 -5 5 23
85 33 94 3 3 6 12 8 20 2 8 14 29 28 47 13 17 24 34 24 38 0 6 64 78 85 97 48
42 79 62 144 94 42 21 83 43 91 49 15 11 59 26 290 100 136 43 313 111 355
137 40 24 62 23 101 -7z"/>
</g>
</svg>
